# Blender v2.92.0 OBJ File: 'Envelopes.blend'
# www.blender.org
mtllib EnvelopesLetter.mtl
o Plane.004_Plane.006
v 2.923469 -0.035600 0.867936
v 5.486632 -0.035600 0.867936
v 2.923469 -0.035600 -1.295734
v 5.486632 -0.035600 -1.295734
vt 0.000000 0.000000
vt 1.000000 0.000000
vt 1.000000 1.000000
vt 0.000000 1.000000
vn 0.0000 1.0000 0.0000
usemtl None
s off
f 1/1/1 2/2/1 4/3/1 3/4/1
o Plane.005_Plane.007
v 2.700936 0.000000 2.000299
v 5.665658 0.000000 2.000299
v 2.700936 0.000000 1.000299
v 5.665658 0.000000 1.000299
v 5.665658 0.000000 2.000299
v 2.700936 0.000000 2.000299
v 5.665658 0.000000 1.000299
v 2.700936 0.000000 1.000299
v 4.183297 0.000000 1.000299
v 2.700936 0.000000 0.000000
v 5.665658 0.000000 0.000000
v 5.665658 0.000000 0.000000
v 2.700936 0.000000 0.000000
v 2.700936 0.000000 1.000299
v 2.700936 0.000000 2.000299
v 5.665658 0.000000 2.000299
v 5.665658 0.000000 1.000299
v 4.183297 0.000000 1.000299
v 5.665658 0.000000 1.000299
v 5.665658 0.000000 2.000299
v 2.700936 0.000000 2.000299
v 2.700936 0.000000 1.000299
v 2.700936 0.000000 0.000000
v 5.665658 0.000000 0.000000
v 2.700936 -0.057170 1.000299
v 2.700936 -0.057170 2.000299
v 5.665658 -0.057170 2.000299
v 5.665658 -0.057170 1.000299
v 4.183297 -0.057170 1.000299
v 2.700936 -0.057170 1.000299
v 2.700936 -0.057170 0.000000
v 5.665658 -0.057170 0.000000
v 5.665658 -0.057170 1.000299
vt 0.000000 0.500000
vt 0.500000 0.500000
vt 0.000000 1.000000
vt 0.000000 0.000000
vt 0.000000 0.000000
vt 0.000000 0.000000
vt 0.000000 0.000000
vt 1.000000 1.000000
vt 1.000000 0.500000
vt 0.000000 0.500000
vt 0.500000 0.500000
vt 0.000000 0.000000
vt 0.000000 0.000000
vt 0.000000 0.000000
vt 0.000000 0.000000
vt 0.000000 0.000000
vt 0.000000 0.000000
vt 0.000000 0.000000
vt 0.000000 0.000000
vt 0.000000 0.500000
vt 0.500000 0.500000
vt 0.000000 0.000000
vt 0.000000 0.000000
vt 0.000000 0.000000
vt 0.000000 0.000000
vt 0.000000 0.500000
vt 1.000000 0.500000
vt 1.000000 0.000000
vt 0.000000 0.000000
vt 0.000000 0.000000
vt 1.000000 0.500000
vt 0.000000 0.000000
vt 0.000000 0.000000
vt 0.000000 0.000000
vt 0.000000 0.000000
vt 0.000000 0.000000
vt 0.000000 0.000000
vt 1.000000 0.500000
vt 0.000000 0.000000
vt 1.000000 0.000000
vt 1.000000 0.500000
vt 0.000000 0.500000
vt 0.000000 1.000000
vt 1.000000 1.000000
vt 0.000000 0.000000
vt 0.000000 0.000000
vt 0.000000 0.000000
vn 0.0000 1.0000 0.0000
vn 0.0000 0.0000 1.0000
vn -1.0000 0.0000 0.0000
vn 0.0000 0.0000 -1.0000
vn 1.0000 0.0000 0.0000
usemtl None
s off
f 7/5/2 13/6/2 14/7/2
f 16/8/3 17/9/3 27/10/3 28/11/3
f 14/7/2 13/6/2 15/12/2
f 15/12/2 13/6/2 8/13/2
f 13/6/3 7/5/3 18/14/3 22/15/3
f 17/9/3 12/16/3 26/17/3 27/10/3
f 6/18/3 8/19/3 21/20/3 20/21/3
f 12/16/3 10/22/3 25/23/3 26/17/3
f 22/15/3 18/14/3 29/24/3 33/25/3
f 23/26/4 28/11/4 36/27/4 37/28/4
f 24/29/2 23/30/2 22/15/2 26/31/2 25/32/2
f 20/21/4 21/20/4 32/33/4 31/34/4
f 26/31/5 22/15/5 33/25/5 34/35/5
f 9/36/3 11/37/3 23/26/3 24/29/3
f 7/38/3 5/39/3 19/40/3 18/41/3
f 8/13/3 13/6/3 22/15/3 21/42/3
f 11/37/3 16/8/3 28/11/3 23/26/3
f 10/22/3 9/36/3 24/29/3 25/23/3
f 5/39/3 6/18/3 20/21/3 19/40/3
f 30/43/2 31/44/2 32/45/2 33/25/2 29/24/2
f 37/46/2 36/47/2 33/25/2
f 36/47/2 35/48/2 33/25/2
f 35/48/2 34/35/2 33/25/2
f 18/41/6 19/40/6 30/43/6 29/49/6
f 27/10/6 26/17/6 34/50/6 35/51/6
f 21/42/3 22/15/3 33/25/3 32/45/3
f 22/15/5 23/30/5 37/46/5 33/25/5
f 19/40/5 20/21/5 31/34/5 30/43/5
o Plane.006_Plane.008
v 2.700936 0.000000 0.000000
v 5.665658 0.000000 0.000000
v 4.183297 0.000000 -1.000299
v 5.665658 0.000000 0.000000
v 2.700936 0.000000 0.000000
v 4.183297 0.000000 -1.000299
v 5.665658 -0.057170 0.000000
v 2.700936 -0.057170 0.000000
v 4.183297 -0.057170 -1.000299
vt 0.000000 1.000000
vt 0.500000 0.500000
vt 1.000000 1.000000
vt 0.500000 0.500000
vt 1.000000 1.000000
vt 0.000000 1.000000
vt 0.000000 1.000000
vt 1.000000 1.000000
vt 0.500000 0.500000
vn 0.0000 -1.0000 0.0000
vn 0.0000 0.0000 1.0000
vn 0.0000 1.0000 0.0000
usemtl None
s off
f 38/52/7 40/53/7 39/54/7
f 39/54/8 40/53/8 43/55/8 41/56/8
f 40/53/8 38/52/8 42/57/8 43/55/8
f 38/52/8 39/54/8 41/56/8 42/57/8
f 45/58/9 44/59/9 46/60/9
