# Blender v2.92.0 OBJ File: 'key.blend'
# www.blender.org
mtllib Key.mtl
o Circle
v 0.054778 0.046133 0.072543
v 0.024442 0.046133 0.075531
v -0.004728 0.046133 0.084380
v -0.031612 0.046133 0.098749
v -0.055175 0.046133 0.118087
v -0.074513 0.046133 0.141651
v -0.088883 0.046133 0.168534
v -0.097731 0.046133 0.197704
v -0.100719 0.046133 0.228040
v -0.097731 0.046133 0.258376
v -0.088883 0.046133 0.287546
v -0.074513 0.046133 0.314429
v -0.055175 0.046133 0.337993
v -0.031612 0.046133 0.357331
v -0.004728 0.046133 0.371700
v 0.024442 0.046133 0.380549
v 0.054778 0.046133 0.383537
v 0.085113 0.046133 0.380549
v 0.114284 0.046133 0.371700
v 0.141167 0.046133 0.357331
v 0.164730 0.046133 0.337993
v 0.184068 0.046133 0.314429
v 0.198438 0.046133 0.287546
v 0.207286 0.046133 0.258376
v 0.210274 0.046133 0.228040
v 0.207286 0.046133 0.197704
v 0.198438 0.046133 0.168534
v 0.184068 0.046133 0.141651
v 0.164730 0.046133 0.118087
v 0.141167 0.046133 0.098749
v 0.114283 0.046133 0.084380
v 0.085113 0.046133 0.075531
v 0.095992 0.046133 0.289022
v 0.088332 0.046133 0.327533
v 0.092727 0.046133 0.282912
v 0.030695 0.046133 0.289022
v 0.043710 0.046133 0.331928
v 0.028684 0.046133 0.295651
v 0.049820 0.046133 0.335194
v 0.063344 0.046133 0.267206
v 0.092727 0.046133 0.322178
v 0.056449 0.046133 0.267885
v 0.028005 0.046133 0.302545
v 0.088332 0.046133 0.277557
v 0.095992 0.046133 0.316069
v 0.056449 0.046133 0.337205
v 0.028684 0.046133 0.309440
v 0.049820 0.046133 0.269896
v 0.098003 0.046133 0.309439
v 0.082977 0.046133 0.273162
v 0.057663 0.046133 0.337325
v 0.030695 0.046133 0.316069
v 0.063344 0.046133 0.337884
v 0.043710 0.046133 0.273162
v 0.098682 0.046133 0.302545
v 0.076867 0.046133 0.269896
v 0.033960 0.046133 0.322178
v 0.070238 0.046133 0.337205
v 0.098003 0.046133 0.295651
v 0.038355 0.046133 0.277557
v 0.038355 0.046133 0.327534
v 0.070238 0.046133 0.267885
v 0.076867 0.046133 0.335194
v 0.033960 0.046133 0.282912
v 0.082977 0.046133 0.331928
v 0.024506 -0.005571 0.075471
v 0.054842 -0.005571 0.072483
v -0.004664 -0.005571 0.084320
v -0.031548 -0.005571 0.098689
v -0.055111 -0.005571 0.118027
v -0.074449 -0.005571 0.141590
v -0.088819 -0.005571 0.168474
v -0.097667 -0.005571 0.197644
v -0.100655 -0.005571 0.227980
v -0.097667 -0.005571 0.258316
v -0.088819 -0.005571 0.287486
v -0.074449 -0.005571 0.314369
v -0.055111 -0.005571 0.337932
v -0.031548 -0.005571 0.357270
v -0.004664 -0.005571 0.371640
v 0.024506 -0.005571 0.380489
v 0.054842 -0.005571 0.383476
v 0.085178 -0.005571 0.380489
v 0.114348 -0.005571 0.371640
v 0.141231 -0.005571 0.357270
v 0.164794 -0.005571 0.337932
v 0.184132 -0.005571 0.314369
v 0.198502 -0.005571 0.287486
v 0.207350 -0.005571 0.258316
v 0.210338 -0.005571 0.227980
v 0.207350 -0.005571 0.197644
v 0.198502 -0.005571 0.168474
v 0.184132 -0.005571 0.141590
v 0.164794 -0.005571 0.118027
v 0.141231 -0.005571 0.098689
v 0.114347 -0.005571 0.084320
v 0.085177 -0.005571 0.075471
v 0.096056 -0.005571 0.288961
v 0.092791 -0.005571 0.282852
v 0.043774 -0.005571 0.331868
v 0.049884 -0.005571 0.335134
v 0.063408 -0.005571 0.267146
v 0.056513 -0.005571 0.267825
v 0.088396 -0.005571 0.277497
v 0.056513 -0.005571 0.337145
v 0.049884 -0.005571 0.269836
v 0.083041 -0.005571 0.273102
v 0.057727 -0.005571 0.337264
v 0.063408 -0.005571 0.337824
v 0.043774 -0.005571 0.273102
v 0.076931 -0.005571 0.269836
v 0.070302 -0.005571 0.337145
v 0.038419 -0.005571 0.277497
v 0.070302 -0.005571 0.267825
v 0.076931 -0.005571 0.335134
v 0.034024 -0.005571 0.282852
v 0.083041 -0.005571 0.331868
v 0.030759 -0.005571 0.288961
v 0.088396 -0.005571 0.327473
v 0.028748 -0.005571 0.295591
v 0.092791 -0.005571 0.322118
v 0.028069 -0.005571 0.302485
v 0.096056 -0.005571 0.316008
v 0.028748 -0.005571 0.309379
v 0.098067 -0.005571 0.309379
v 0.030759 -0.005571 0.316008
v 0.098746 -0.005571 0.302485
v 0.034024 -0.005571 0.322118
v 0.098067 -0.005571 0.295591
v 0.038419 -0.005571 0.327473
vt 0.000000 0.000000
vt 0.000000 0.000000
vt 0.000000 0.000000
vt 0.000000 0.000000
vt 0.000000 0.000000
vt 0.000000 0.000000
vt 0.000000 0.000000
vt 0.000000 0.000000
vt 0.000000 0.000000
vt 0.000000 0.000000
vt 0.000000 0.000000
vt 0.000000 0.000000
vt 0.000000 0.000000
vt 0.000000 0.000000
vt 0.000000 0.000000
vt 0.000000 0.000000
vt 0.000000 0.000000
vt 0.000000 0.000000
vt 0.000000 0.000000
vt 0.000000 0.000000
vt 0.000000 0.000000
vt 0.000000 0.000000
vt 0.000000 0.000000
vt 0.000000 0.000000
vt 0.000000 0.000000
vt 0.000000 0.000000
vt 0.000000 0.000000
vt 0.000000 0.000000
vt 0.000000 0.000000
vt 0.000000 0.000000
vt 0.000000 0.000000
vt 0.000000 0.000000
vt 0.000000 0.000000
vt 0.000000 0.000000
vt 0.000000 0.000000
vt 0.000000 0.000000
vt 0.000000 0.000000
vt 0.000000 0.000000
vt 0.000000 0.000000
vt 0.000000 0.000000
vt 0.000000 0.000000
vt 0.000000 0.000000
vt 0.000000 0.000000
vt 0.000000 0.000000
vt 0.000000 0.000000
vt 0.000000 0.000000
vt 0.000000 0.000000
vt 0.000000 0.000000
vt 0.000000 0.000000
vt 0.000000 0.000000
vt 0.000000 0.000000
vt 0.000000 0.000000
vt 0.000000 0.000000
vt 0.000000 0.000000
vt 0.000000 0.000000
vt 0.000000 0.000000
vt 0.000000 0.000000
vt 0.000000 0.000000
vt 0.000000 0.000000
vt 0.000000 0.000000
vt 0.000000 0.000000
vt 0.000000 0.000000
vt 0.000000 0.000000
vt 0.000000 0.000000
vt 0.000000 0.000000
vt 0.000000 0.000000
vt 0.000000 0.000000
vt 0.000000 0.000000
vt 0.000000 0.000000
vt 0.000000 0.000000
vt 0.000000 0.000000
vt 0.000000 0.000000
vt 0.000000 0.000000
vt 0.000000 0.000000
vt 0.000000 0.000000
vt 0.000000 0.000000
vt 0.000000 0.000000
vt 0.000000 0.000000
vt 0.000000 0.000000
vt 0.000000 0.000000
vt 0.000000 0.000000
vt 0.000000 0.000000
vt 0.000000 0.000000
vt 0.000000 0.000000
vt 0.000000 0.000000
vt 0.000000 0.000000
vt 0.000000 0.000000
vt 0.000000 0.000000
vt 0.000000 0.000000
vt 0.000000 0.000000
vt 0.000000 0.000000
vt 0.000000 0.000000
vt 0.000000 0.000000
vt 0.000000 0.000000
vt 0.000000 0.000000
vt 0.000000 0.000000
vt 0.000000 0.000000
vt 0.000000 0.000000
vt 0.000000 0.000000
vt 0.000000 0.000000
vt 0.000000 0.000000
vt 0.000000 0.000000
vt 0.000000 0.000000
vt 0.000000 0.000000
vt 0.000000 0.000000
vt 0.000000 0.000000
vt 0.000000 0.000000
vt 0.000000 0.000000
vt 0.000000 0.000000
vt 0.000000 0.000000
vt 0.000000 0.000000
vt 0.000000 0.000000
vt 0.000000 0.000000
vt 0.000000 0.000000
vt 0.000000 0.000000
vt 0.000000 0.000000
vt 0.000000 0.000000
vt 0.000000 0.000000
vt 0.000000 0.000000
vt 0.000000 0.000000
vt 0.000000 0.000000
vt 0.000000 0.000000
vt 0.000000 0.000000
vt 0.000000 0.000000
vt 0.000000 0.000000
vt 0.000000 0.000000
vt 0.000000 0.000000
vt 0.000000 0.000000
vt 0.000000 0.000000
vt 0.000000 0.000000
vn 0.0000 1.0000 0.0000
vn 0.0000 -1.0000 0.0000
vn 0.9952 0.0011 0.0980
vn 0.6344 0.0017 -0.7730
vn -0.4714 0.0004 -0.8819
vn -0.8819 -0.0005 -0.4714
vn 0.4714 0.0016 -0.8819
vn -0.6344 0.0001 -0.7730
vn 0.9952 0.0013 -0.0980
vn 0.2903 0.0015 -0.9569
vn -0.7730 -0.0002 -0.6344
vn -0.9569 -0.0008 -0.2903
vn -0.0980 -0.0013 0.9952
vn 0.9569 0.0015 -0.2903
vn -0.8819 -0.0016 0.4714
vn -0.9952 -0.0011 -0.0980
vn 0.8819 0.0016 -0.4714
vn 0.0980 -0.0010 0.9952
vn -0.9952 -0.0013 0.0980
vn -0.7730 -0.0017 0.6344
vn -0.9569 -0.0015 0.2903
vn 0.7730 0.0017 -0.6344
vn -0.2903 -0.0015 0.9569
vn 0.2903 -0.0008 0.9569
vn -0.6344 -0.0017 0.7730
vn -0.4714 -0.0016 0.8819
vn 0.4714 -0.0004 0.8819
vn -0.0980 0.0010 -0.9952
vn 0.6344 -0.0001 0.7730
vn -0.2903 0.0008 -0.9569
vn 0.7730 0.0002 0.6344
vn 0.8819 0.0005 0.4714
vn 0.9569 0.0008 0.2903
usemtl None
s off
f 32/1/1 1/2/1 2/3/1 3/4/1 4/5/1 5/6/1 6/7/1 7/8/1 8/9/1 9/10/1 10/11/1 11/12/1 12/13/1 13/14/1 14/15/1 15/16/1 16/17/1 17/18/1 51/19/1 46/20/1 39/21/1 37/22/1 61/23/1 57/24/1 52/25/1 47/26/1 43/27/1 38/28/1 36/29/1 64/30/1 60/31/1 54/32/1 48/33/1 42/34/1 40/35/1 62/36/1 56/37/1 50/38/1 44/39/1 35/40/1 33/41/1 25/42/1 26/43/1 27/44/1 28/45/1 29/46/1 30/47/1 31/48/1
f 53/49/1 51/19/1 17/18/1 18/50/1 19/51/1 20/52/1 21/53/1 22/54/1 23/55/1 24/56/1 25/42/1 33/41/1 59/57/1 55/58/1 49/59/1 45/60/1 41/61/1 34/62/1 65/63/1 63/64/1 58/65/1
f 97/66/2 96/67/2 95/68/2 94/69/2 93/70/2 92/71/2 91/72/2 90/73/2 98/74/2 99/75/2 104/76/2 107/77/2 111/78/2 114/79/2 102/80/2 103/81/2 106/82/2 110/83/2 113/84/2 116/85/2 118/86/2 120/87/2 122/88/2 124/89/2 126/90/2 128/91/2 130/92/2 100/93/2 101/94/2 105/95/2 108/96/2 82/97/2 81/98/2 80/99/2 79/100/2 78/101/2 77/102/2 76/103/2 75/104/2 74/105/2 73/106/2 72/107/2 71/108/2 70/109/2 69/110/2 68/111/2 66/112/2 67/113/2
f 109/114/2 112/115/2 115/116/2 117/117/2 119/118/2 121/119/2 123/120/2 125/121/2 127/122/2 129/123/2 98/74/2 90/73/2 89/124/2 88/125/2 87/126/2 86/127/2 85/128/2 84/129/2 83/130/2 82/97/2 108/96/2
f 43/27/3 122/88/3 120/87/3 38/28/3
f 29/46/4 94/69/4 95/68/4 30/47/4
f 3/4/5 68/111/5 69/110/5 4/5/5
f 45/60/6 123/120/6 121/119/6 41/61/6
f 30/47/7 95/68/7 96/67/7 31/48/7
f 4/5/8 69/110/8 70/109/8 5/6/8
f 47/26/9 124/89/9 122/88/9 43/27/9
f 31/48/10 96/67/10 97/66/10 32/1/10
f 5/6/11 70/109/11 71/108/11 6/7/11
f 49/59/12 125/121/12 123/120/12 45/60/12
f 32/1/13 1/2/13 67/113/13 97/66/13
f 6/7/6 71/108/6 72/107/6 7/8/6
f 52/25/14 126/90/14 124/89/14 47/26/14
f 35/40/15 99/75/15 98/74/15 33/41/15
f 7/8/12 72/107/12 73/106/12 8/9/12
f 55/58/16 127/122/16 125/121/16 49/59/16
f 39/21/7 101/94/7 100/93/7 37/22/7
f 8/9/16 73/106/16 74/105/16 9/10/16
f 57/24/17 128/91/17 126/90/17 52/25/17
f 42/34/18 103/81/18 102/80/18 40/35/18
f 9/10/19 74/105/19 75/104/19 10/11/19
f 59/57/19 129/123/19 127/122/19 55/58/19
f 44/39/20 104/76/20 99/75/20 35/40/20
f 10/11/21 75/104/21 76/103/21 11/12/21
f 61/23/22 130/92/22 128/91/22 57/24/22
f 46/20/23 39/21/23 101/94/23 105/95/23
f 11/12/15 76/103/15 77/102/15 12/13/15
f 33/41/21 98/74/21 129/123/21 59/57/21
f 48/33/24 106/82/24 103/81/24 42/34/24
f 12/13/20 77/102/20 78/101/20 13/14/20
f 37/22/4 100/93/4 130/92/4 61/23/4
f 50/38/25 107/77/25 104/76/25 44/39/25
f 13/14/25 78/101/25 79/100/25 14/15/25
f 51/19/13 46/20/13 105/95/13 108/96/13
f 14/15/26 79/100/26 80/99/26 15/16/26
f 53/49/13 51/19/13 108/96/13 109/114/13
f 15/16/23 80/99/23 81/98/23 16/17/23
f 54/32/27 110/83/27 106/82/27 48/33/27
f 16/17/13 81/98/13 82/97/13 17/18/13
f 56/37/26 111/78/26 107/77/26 50/38/26
f 17/18/18 82/97/18 83/130/18 18/50/18
f 58/65/28 112/115/28 109/114/28 53/49/28
f 18/50/24 83/130/24 84/129/24 19/51/24
f 60/31/29 113/84/29 110/83/29 54/32/29
f 19/51/27 84/129/27 85/128/27 20/52/27
f 62/36/23 114/79/23 111/78/23 56/37/23
f 20/52/29 85/128/29 86/127/29 21/53/29
f 63/64/30 115/116/30 112/115/30 58/65/30
f 21/53/31 86/127/31 87/126/31 22/54/31
f 64/30/31 116/85/31 113/84/31 60/31/31
f 22/54/32 87/126/32 88/125/32 23/55/32
f 40/35/13 102/80/13 114/79/13 62/36/13
f 23/55/33 88/125/33 89/124/33 24/56/33
f 65/63/5 117/117/5 115/116/5 63/64/5
f 24/56/3 89/124/3 90/73/3 25/42/3
f 36/29/32 118/86/32 116/85/32 64/30/32
f 25/42/9 90/73/9 91/72/9 26/43/9
f 34/62/8 119/118/8 117/117/8 65/63/8
f 26/43/14 91/72/14 92/71/14 27/44/14
f 38/28/33 120/87/33 118/86/33 36/29/33
f 27/44/17 92/71/17 93/70/17 28/45/17
f 1/2/18 2/3/18 66/112/18 67/113/18
f 41/61/11 121/119/11 119/118/11 34/62/11
f 28/45/22 93/70/22 94/69/22 29/46/22
f 2/3/30 66/112/30 68/111/30 3/4/30
o Plane_Plane.001
v 0.088559 0.044619 0.079250
v -0.009150 0.044619 -0.336110
v -0.024899 0.044619 0.096300
v -0.063753 0.044619 -0.242909
v -0.037527 0.044619 -0.213562
v -0.043843 0.044619 -0.183878
v -0.021107 0.044619 -0.159246
v -0.028054 0.044619 -0.137773
v -0.000265 0.044619 -0.104300
v -0.018580 0.044619 -0.056300
v -0.004686 0.044619 -0.042406
v -0.038159 0.044619 0.020751
v -0.059229 0.044735 0.030275
v -0.062289 0.044043 0.047204
v -0.056862 0.042077 0.063563
v -0.029317 0.044619 0.077593
v 0.000496 0.044619 -0.337559
v 0.028480 0.044619 -0.321968
v -0.024835 -0.007084 0.096240
v 0.088623 -0.007084 0.079189
v 0.000560 -0.007084 -0.337619
v -0.009086 -0.007084 -0.336170
v -0.063689 -0.007084 -0.242969
v -0.037463 -0.007084 -0.213622
v -0.043779 -0.007084 -0.183938
v -0.021043 -0.007084 -0.159307
v -0.027990 -0.007084 -0.137833
v -0.000201 -0.007084 -0.104360
v -0.018516 -0.007084 -0.056361
v -0.004622 -0.007084 -0.042466
v -0.038095 -0.007084 0.020691
v -0.059165 -0.006969 0.030215
v -0.062225 -0.007660 0.047143
v -0.056798 -0.009626 0.063502
v -0.029253 -0.007084 0.077533
v 0.028544 -0.007084 -0.322028
vt 0.338089 0.802357
vt 0.477067 0.724949
vt 0.408412 0.658131
vt 0.529679 0.592910
vt 0.464862 0.545404
vt 0.609853 0.457856
vt 0.447214 0.352641
vt 0.522431 0.315476
vt 0.248715 0.180310
vt 0.101633 0.162848
vt 0.079865 0.109977
vt 0.149849 0.070095
vt 0.250625 0.045044
vt 0.260860 0.000000
vt 1.000000 0.000000
vt 1.000000 0.950641
vt 0.838019 1.000000
vt 0.775180 1.000000
vt 0.338089 0.802357
vt 0.775180 1.000000
vt 0.838019 1.000000
vt 1.000000 0.950641
vt 1.000000 0.000000
vt 0.260860 0.000000
vt 0.250625 0.045044
vt 0.149849 0.070095
vt 0.079865 0.109977
vt 0.101633 0.162848
vt 0.248715 0.180310
vt 0.522431 0.315476
vt 0.447214 0.352641
vt 0.609853 0.457856
vt 0.464862 0.545404
vt 0.529679 0.592910
vt 0.408412 0.658131
vt 0.477067 0.724949
vn -0.0012 1.0000 0.0012
vn 0.0012 -1.0000 -0.0012
vn -0.9732 -0.0015 0.2298
vn -0.9343 -0.0007 -0.3565
vn -0.1486 0.0010 -0.9889
vn 0.9890 0.0014 -0.1481
vn -0.7071 -0.0017 0.7071
vn -0.8628 -0.0005 -0.5055
vn 0.4867 0.0016 -0.8736
vn -0.8836 -0.0005 -0.4683
vn -0.7457 -0.0017 0.6663
vn -0.4119 0.0006 -0.9112
vn -0.9781 -0.0010 -0.2081
vn -0.9840 -0.0010 -0.1779
vn -0.7348 -0.0017 0.6783
vn -0.9492 -0.0015 0.3147
vn -0.9514 -0.0008 -0.3078
vn -0.4537 -0.0016 0.8911
vn -0.7694 -0.0017 0.6388
usemtl None
s off
f 134/131/34 135/132/34 136/133/34 137/134/34 138/135/34 139/136/34 140/137/34 141/138/34 142/139/34 143/140/34 144/141/34 145/142/34 146/143/34 133/144/34 131/145/34 148/146/34 147/147/34 132/148/34
f 153/149/35 152/150/35 151/151/35 166/152/35 150/153/35 149/154/35 165/155/35 164/156/35 163/157/35 162/158/35 161/159/35 160/160/35 159/161/35 158/162/35 157/163/35 156/164/35 155/165/35 154/166/35
f 146/143/36 165/155/36 149/154/36 133/144/36
f 139/136/37 158/162/37 159/161/37 140/137/37
f 147/147/38 151/151/38 152/150/38 132/148/38
f 131/145/39 150/153/39 166/152/39 148/146/39
f 140/137/40 159/161/40 160/160/40 141/138/40
f 132/148/41 152/150/41 153/149/41 134/131/41
f 148/146/42 166/152/42 151/151/42 147/147/42
f 141/138/43 160/160/43 161/159/43 142/139/43
f 134/131/44 153/149/44 154/166/44 135/132/44
f 142/139/45 161/159/45 162/158/45 143/140/45
f 135/132/46 154/166/46 155/165/46 136/133/46
f 143/140/47 162/158/47 163/157/47 144/141/47
f 136/133/48 155/165/48 156/164/48 137/134/48
f 144/141/49 163/157/49 164/156/49 145/142/49
f 137/134/50 156/164/50 157/163/50 138/135/50
f 145/142/51 164/156/51 165/155/51 146/143/51
f 138/135/52 157/163/52 158/162/52 139/136/52
f 133/144/38 131/145/38 150/153/38 149/154/38
